<?xml version="1.0" encoding="utf-8"?>
<!-- Generator: Adobe Illustrator 25.1.0, SVG Export Plug-In . SVG Version: 6.00 Build 0)  -->
<svg version="1.1" xmlns="http://www.w3.org/2000/svg" xmlns:xlink="http://www.w3.org/1999/xlink" x="0px" y="0px"
	 viewBox="0 0 129.25 123.04" style="enable-background:new 0 0 129.25 123.04;" xml:space="preserve">
<style type="text/css">
	.st0{fill:none;stroke:#01FFFF;stroke-miterlimit:10;}
	.st1{fill:none;stroke:#9D72FF;stroke-miterlimit:10;}
</style>
<g id="bottom_x5F_arrow">
	<path class="st0" d="M55.17,102.66H31.15l9.61,9.86c0,0,1.58,4.49-1.64,7.71c-3.22,3.22-6.7,2.13-6.7,2.13L6.44,96.71l24.58-24.53
		c0,0,3.73-3.6,8.6,1.26c4.87,4.87-1.9,10.57-1.9,10.57l-6.07,5.86h17.32h60.14c0,0,4.14-0.55,4.14-7.63c0-7.08,0-30.01,0-30.01
		s1.35-5.73,8.09-5.73c6.74,0,7.39,7.39,7.39,7.39v42.52c0,0,0.7,6.07-6.04,6.07C115.95,102.49,55.17,102.66,55.17,102.66z"/>
	<path class="st1" d="M52.2,102.66H28.17l9.61,9.86c0,0,1.58,4.49-1.64,7.71c-3.22,3.22-6.7,2.13-6.7,2.13L3.47,96.71l24.58-24.53
		c0,0,3.73-3.6,8.6,1.26c4.87,4.87-1.9,10.57-1.9,10.57l-6.07,5.86H46h60.14c0,0,4.14-0.55,4.14-7.63c0-7.08,0-30.01,0-30.01
		s1.35-5.73,8.09-5.73s7.39,7.39,7.39,7.39v42.52c0,0,0.7,6.07-6.04,6.07C112.98,102.49,52.2,102.66,52.2,102.66z"/>
</g>
<g id="top_x5F_arrow">
	<path class="st1" d="M74.08,20.38h24.03l-9.61-9.86c0,0-1.58-4.49,1.64-7.71c3.22-3.22,6.7-2.13,6.7-2.13l25.97,25.65L98.24,50.86
		c0,0-3.73,3.6-8.6-1.26c-4.87-4.87,1.9-10.57,1.9-10.57l6.07-5.86H80.28H20.14c0,0-4.14,0.55-4.14,7.63s0,30.01,0,30.01
		s-1.35,5.73-8.09,5.73s-7.39-7.39-7.39-7.39V26.62c0,0-0.7-6.07,6.04-6.07S74.08,20.38,74.08,20.38z"/>
	<path class="st0" d="M77.06,20.38h24.03l-9.61-9.86c0,0-1.58-4.49,1.64-7.71c3.22-3.22,6.7-2.13,6.7-2.13l25.97,25.65l-24.58,24.53
		c0,0-3.73,3.6-8.6-1.26c-4.87-4.87,1.9-10.57,1.9-10.57l6.07-5.86H83.25H23.11c0,0-4.14,0.55-4.14,7.63s0,30.01,0,30.01
		s-1.35,5.73-8.09,5.73s-7.39-7.39-7.39-7.39V26.62c0,0-0.7-6.07,6.04-6.07S77.06,20.38,77.06,20.38z"/>
	<g>
	</g>
	<g>
	</g>
	<g>
	</g>
	<g>
	</g>
	<g>
	</g>
	<g>
	</g>
</g>
</svg>
