<?xml version="1.0" encoding="utf-8"?>
<!-- Generator: Adobe Illustrator 25.1.0, SVG Export Plug-In . SVG Version: 6.00 Build 0)  -->
<svg version="1.1" id="repeat" xmlns="http://www.w3.org/2000/svg" xmlns:xlink="http://www.w3.org/1999/xlink" x="0px" y="0px"
	 viewBox="0 0 129.2 123" style="enable-background:new 0 0 129.2 123;" xml:space="preserve">
<style type="text/css">
	.st0{fill:none;stroke:#01FFFF;stroke-miterlimit:10;}
	.st1{fill:none;stroke:#9D72FF;stroke-miterlimit:10;}
</style>
<g id="bottom_x5F_arrow">
	<path class="st0" d="M55.2,102.7h-24l9.6,9.9c0,0,1.6,4.5-1.6,7.7s-6.7,2.1-6.7,2.1l-26-25.7L31,72.2c0,0,3.7-3.6,8.6,1.3
		c4.9,4.9-1.9,10.6-1.9,10.6l-6.1,5.9H49h60.1c0,0,4.1-0.6,4.1-7.6c0-7.1,0-30,0-30s1.3-5.7,8.1-5.7c6.7,0,7.4,7.4,7.4,7.4v42.5
		c0,0,0.7,6.1-6,6.1C115.9,102.5,55.2,102.7,55.2,102.7z"/>
	<path class="st1" d="M52.2,102.7h-24l9.6,9.9c0,0,1.6,4.5-1.6,7.7s-6.7,2.1-6.7,2.1l-26-25.7L28,72.2c0,0,3.7-3.6,8.6,1.3
		c4.9,4.9-1.9,10.6-1.9,10.6l-6.1,5.9H46h60.1c0,0,4.1-0.6,4.1-7.6c0-7.1,0-30,0-30s1.3-5.7,8.1-5.7s7.4,7.4,7.4,7.4v42.5
		c0,0,0.7,6.1-6,6.1C113,102.5,52.2,102.7,52.2,102.7z"/>
</g>
<g id="top_x5F_arrow">
	<path class="st1" d="M74.1,20.4h24l-9.6-9.9c0,0-1.6-4.5,1.6-7.7s6.7-2.1,6.7-2.1l26,25.6L98.2,50.9c0,0-3.7,3.6-8.6-1.3
		C84.8,44.7,91.5,39,91.5,39l6.1-5.9H80.3H20.1c0,0-4.1,0.5-4.1,7.6s0,30,0,30s-1.4,5.7-8.1,5.7s-7.4-7.4-7.4-7.4V26.6
		c0,0-0.7-6.1,6-6.1S74.1,20.4,74.1,20.4z"/>
	<path class="st0" d="M77.1,20.4h24l-9.6-9.9c0,0-1.6-4.5,1.6-7.7s6.7-2.1,6.7-2.1l26,25.6l-24.6,24.5c0,0-3.7,3.6-8.6-1.3
		C87.7,44.7,94.5,39,94.5,39l6.1-5.9H83.2H23.1c0,0-4.1,0.5-4.1,7.6s0,30,0,30s-1.4,5.7-8.1,5.7s-7.4-7.4-7.4-7.4V26.6
		c0,0-0.7-6.1,6-6.1S77.1,20.4,77.1,20.4z"/>
</g>
</svg>
