<?xml version="1.0" encoding="utf-8"?>
<!-- Generator: Adobe Illustrator 25.1.0, SVG Export Plug-In . SVG Version: 6.00 Build 0)  -->
<svg version="1.1" id="shuffle" xmlns="http://www.w3.org/2000/svg" xmlns:xlink="http://www.w3.org/1999/xlink" x="0px" y="0px"
	 viewBox="0 0 129.5 109.1" style="enable-background:new 0 0 129.5 109.1;" xml:space="preserve">
<style type="text/css">
	.st0{fill:none;stroke:#01FFFF;stroke-miterlimit:10;}
	.st1{fill:none;stroke:#9D72FF;stroke-miterlimit:10;}
</style>
<g id="bottom_x5F_arrow">
	<path class="st0" d="M8.1,19.4h25.7l14,17.2l-8,10.3L28,33.1H5.1c0,0-4.6-2.8-4.6-7.4C0.5,21,4.4,19.4,8.1,19.4z"/>
	<path class="st0" d="M69.9,62.8l-9.2,10l14.5,17.4h22.4l-8.7,9.1c0,0-1.5,4.8,1.8,7.7s6.8,1.5,9.2-0.8c2.3-2.3,22.9-22.5,22.9-22.5
		L97.9,59.1c0,0-3.3-3-8,1.5s1.9,10.5,1.9,10.5l6.1,5.8l-16.7,0.2L69.9,62.8z"/>
	<path class="st1" d="M11.1,19.4h25.7l14,17.2l-8,10.3L30.9,33.1H8.1c0,0-4.6-2.8-4.6-7.4S7.4,19.4,11.1,19.4z"/>
	<path class="st1" d="M72.8,62.8l-9.2,10l14.5,17.4h22.4l-8.7,9.1c0,0-1.5,4.8,1.8,7.7c3.3,2.8,6.8,1.5,9.2-0.8
		c2.3-2.3,23-22.5,23-22.5l-25-24.5c0,0-3.3-3-8,1.5c-4.7,4.5,1.9,10.5,1.9,10.5l6.1,5.8l-16.7,0.2L72.8,62.8z"/>
</g>
<g id="top_x5F_arrow">
	<path class="st1" d="M14.9,76.8h18.5l47.1-56.6h23.8l-9.5-9.8c0,0-1.6-4.4,1.6-7.6s6.6-2.1,6.6-2.1l25.7,25.4l-24.3,24.3
		c0,0-3.7,3.6-8.5-1.2s1.9-10.5,1.9-10.5l6-5.8H86.7L39.8,90.2H11.5c0,0-5.2-0.9-5.2-6.4c0-5.5,4.4-6.8,5.3-6.8
		C12.5,77,14.9,76.8,14.9,76.8z"/>
	<path class="st0" d="M12,76.8h18.5l47.1-56.6h23.8l-9.5-9.8c0,0-1.6-4.4,1.6-7.6c3.2-3.2,6.6-2.1,6.6-2.1l25.7,25.4l-24.3,24.3
		c0,0-3.7,3.6-8.5-1.2s1.9-10.5,1.9-10.5l6-5.8H83.7L36.9,90.2H8.6c0,0-5.2-0.9-5.2-6.4S7.9,77,8.7,77S12,76.8,12,76.8z"/>
</g>
</svg>
