<?xml version="1.0" encoding="utf-8"?>
<!-- Generator: Adobe Illustrator 25.1.0, SVG Export Plug-In . SVG Version: 6.00 Build 0)  -->
<svg version="1.1" xmlns="http://www.w3.org/2000/svg" xmlns:xlink="http://www.w3.org/1999/xlink" x="0px" y="0px"
	 viewBox="0 0 129.46 109.08" style="enable-background:new 0 0 129.46 109.08;" xml:space="preserve">
<style type="text/css">
	.st0{fill:none;stroke:#01FFFF;stroke-miterlimit:10;}
	.st1{fill:none;stroke:#9D72FF;stroke-miterlimit:10;}
</style>
<g id="bottom_x5F_arrow">
	<path class="st0" d="M8.12,19.35l25.7,0l14.02,17.19l-8.01,10.35L27.98,33.12l-22.87,0c0,0-4.61-2.75-4.61-7.43
		C0.5,21.02,4.45,19.35,8.12,19.35z"/>
	<path class="st0" d="M69.87,62.75l-9.18,10.01l14.52,17.4l22.37,0L88.9,99.3c0,0-1.5,4.84,1.84,7.68s6.84,1.5,9.18-0.83
		c2.34-2.34,22.95-22.53,22.95-22.53L97.92,59.1c0,0-3.34-3.03-8.01,1.48s1.88,10.52,1.88,10.52l6.13,5.84L81.22,77.1L69.87,62.75z"
		/>
	<path class="st1" d="M11.06,19.35h25.7l14.02,17.19l-8.01,10.35L30.92,33.12H8.06c0,0-4.61-2.75-4.61-7.43S7.39,19.35,11.06,19.35z
		"/>
	<path class="st1" d="M72.82,62.75l-9.18,10.01l14.52,17.4h22.37l-8.68,9.14c0,0-1.5,4.84,1.84,7.68c3.34,2.84,6.84,1.5,9.18-0.83
		c2.34-2.34,22.95-22.53,22.95-22.53L100.86,59.1c0,0-3.34-3.03-8.01,1.48c-4.67,4.51,1.88,10.52,1.88,10.52l6.13,5.84L84.17,77.1
		L72.82,62.75z"/>
</g>
<g id="top_x5F_arrow">
	<path class="st1" d="M14.92,76.77l18.53,0l47.07-56.58l23.78,0l-9.51-9.76c0,0-1.56-4.44,1.63-7.64s6.63-2.11,6.63-2.11
		l25.71,25.39l-24.33,24.29c0,0-3.69,3.57-8.51-1.25s1.88-10.47,1.88-10.47l6.01-5.81l-17.15,0L39.83,90.16l-28.29,0
		c0,0-5.16-0.88-5.16-6.38c0-5.51,4.41-6.76,5.28-6.76C12.54,77.02,14.92,76.77,14.92,76.77z"/>
	<path class="st0" d="M11.98,76.77h18.53l47.07-56.58h23.78l-9.51-9.76c0,0-1.56-4.44,1.63-7.64c3.19-3.19,6.63-2.11,6.63-2.11
		l25.71,25.39l-24.33,24.29c0,0-3.69,3.57-8.51-1.25s1.88-10.47,1.88-10.47l6.01-5.81H83.71L36.89,90.16H8.6
		c0,0-5.16-0.88-5.16-6.38s4.41-6.76,5.28-6.76S11.98,76.77,11.98,76.77z"/>
	<g>
	</g>
	<g>
	</g>
	<g>
	</g>
	<g>
	</g>
	<g>
	</g>
	<g>
	</g>
</g>
</svg>
