<?xml version="1.0" encoding="utf-8"?>
<!-- Generator: Adobe Illustrator 25.1.0, SVG Export Plug-In . SVG Version: 6.00 Build 0)  -->
<svg version="1.1" id="volumeoff" xmlns="http://www.w3.org/2000/svg" xmlns:xlink="http://www.w3.org/1999/xlink" x="0px" y="0px"
	 viewBox="0 0 126.5 100.5" style="enable-background:new 0 0 126.5 100.5;" xml:space="preserve">
<style type="text/css">
	.st0{fill:none;stroke:#01FFFF;stroke-miterlimit:10;}
	.st1{fill:none;stroke:#9D72FF;stroke-miterlimit:10;}
	.st2{fill:none;}
	.st3{fill:none;stroke:#9D72FF;stroke-width:0.75;stroke-miterlimit:10;}
</style>
<g id="x">
	<path class="st0" d="M126,67.7c0.1,0.9-0.3,1.7-1,2.3c-0.7,0.7-1.6,1-2.6,1.1c-0.9,0.1-1.7,0-2.3-0.2s-1.2-0.6-1.8-1.2L98.3,51.1
		L80.6,73.2c-0.6,0.8-1.6,1.3-3,1.4c-1.2,0.1-2.2-0.2-3-0.7c-0.8-0.6-1.2-1.3-1.2-2.2c-0.1-1,0.2-1.9,0.9-2.7l18-22.2L72.3,28.2
		c-0.8-0.6-1.2-1.5-1.3-2.5c-0.1-1,0.2-1.8,0.8-2.5c0.6-0.7,1.6-1.1,2.9-1.2S77,22.3,78,23l19.7,18.4l16.5-20.6c1-1.2,2.2-1.9,3.6-2
		c1.2-0.1,2.2,0.1,3,0.7c0.8,0.6,1.2,1.3,1.2,2.2c0.1,1-0.3,1.9-1,2.9l-17.2,21.2l20.8,19.4C125.5,66,126,66.8,126,67.7z"/>
	<path class="st1" d="M124.3,69.8c0,0.9-0.4,1.7-1.2,2.3s-1.7,0.9-2.7,0.9c-0.9,0-1.7-0.1-2.3-0.4c-0.6-0.3-1.2-0.7-1.7-1.3
		L97.9,51.1L78.7,71.8c-0.7,0.8-1.7,1.2-3.1,1.2c-1.2,0-2.2-0.3-2.9-1s-1.1-1.4-1.1-2.3c0-1,0.4-1.9,1.1-2.6l19.6-20.8l-18.6-20
		c-0.8-0.7-1.1-1.6-1.1-2.6c0-1,0.3-1.8,1-2.4s1.7-1,2.9-1c1.3,0,2.4,0.4,3.3,1.1l18.2,19.9l18-19.3c1.1-1.1,2.3-1.7,3.7-1.7
		c1.2,0,2.2,0.3,2.9,1s1.1,1.4,1.1,2.3c0,1-0.4,1.9-1.2,2.8l-18.8,19.8l19.3,21C123.9,68.1,124.3,68.9,124.3,69.8z"/>
</g>
<g id="speaker">
	<path class="st2" d="M0.4,56.7v-21c0,0-0.2-3.7,4.9-3.7s13.4,0,13.4,0s2.4,1.1,9-5.5S50.9,3.3,50.9,3.3S58.3-2,58.3,6
		s0,88.8,0,88.8s-2.2,8.9-8.4,2.7c-6.3-6.3-20.5-20.5-20.5-20.5s-5.8-7.6-10.7-7.6s-14.2,0-14.2,0s-4.1-0.6-4.1-5.1
		C0.4,59.6,0.4,56.7,0.4,56.7z"/>
	<path class="st3" d="M0.4,56.7v-21c0,0-0.2-3.7,4.9-3.7s13.4,0,13.4,0s3.5,0,9-5.5c6.7-6.7,19.8-19.8,23.2-23.2S58.3-2,58.3,6
		s0,86.1,0,88.8s-2.2,8.9-8.4,2.7c-6.3-6.3-20.5-20.5-20.5-20.5s-6.7-7.6-10.7-7.6c-4.9,0-14.2,0-14.2,0s-4.1-0.6-4.1-5.1
		C0.4,59.6,0.4,56.7,0.4,56.7z"/>
	<path class="st0" d="M2.6,56V37.4c0,0-0.2-3.3,4.6-3.3s12.4,0,12.4,0s3.3,0,8.4-4.9c6.2-5.9,18.3-17.5,21.5-20.6s6.8-4.7,6.8,2.4
		s0,76.3,0,78.6s-2,7.9-7.8,2.4c-5.8-5.6-19-18.2-19-18.2s-6.2-6.7-9.9-6.7c-4.6,0-13.1,0-13.1,0s-3.8-0.6-3.8-4.5S2.6,56,2.6,56z"
		/>
	<line class="st1" x1="21.1" y1="35.3" x2="21.1" y2="65.6"/>
	<line class="st1" x1="17.5" y1="35.3" x2="17.5" y2="65.6"/>
	<line class="st0" x1="19.3" y1="35.3" x2="19.3" y2="65.6"/>
</g>
</svg>
