<?xml version="1.0" encoding="utf-8"?>
<!-- Generator: Adobe Illustrator 25.1.0, SVG Export Plug-In . SVG Version: 6.00 Build 0)  -->
<svg version="1.1" id="volumeon" xmlns="http://www.w3.org/2000/svg" xmlns:xlink="http://www.w3.org/1999/xlink" x="0px" y="0px"
	 viewBox="0 0 126.5 110.6" style="enable-background:new 0 0 126.5 110.6;" xml:space="preserve">
<style type="text/css">
	.st0{fill:none;stroke:#01FFFF;stroke-miterlimit:10;}
	.st1{fill:none;stroke:#9D72FF;stroke-miterlimit:10;}
	.st2{fill:none;}
	.st3{fill:none;stroke:#9D72FF;stroke-width:0.75;stroke-miterlimit:10;}
</style>
<g id="sound_x5F_waves">
	<path class="st0" d="M73.2,70.1c0,0,12.3-3.4,13.3-13.9c1-10.5-11-14.3-11-14.3s-1.5-0.6-0.9-1.5c0.6-0.8,2.3-0.1,2.3-0.1
		S89,44.7,89.1,55.5S75.7,71.2,75.7,71.2l-1.8,0.6c0,0-1.5,0.3-1.9-0.6S73.2,70.1,73.2,70.1z"/>
	<path class="st1" d="M74.3,70.4c0,0,12.1-3.8,12.2-14.4c0.1-10.5-12.2-13.9-12.2-13.9s-1.6-0.6-1-1.4c0.6-0.9,2.3-0.2,2.3-0.2
		S88,44.4,89,55.2C90,66,76.9,71.4,76.9,71.4l-1.8,0.7c0,0-1.5,0.4-2-0.5C72.7,70.7,74.3,70.4,74.3,70.4z"/>
	<path class="st0" d="M85,83.7c0,0,17.1-6.7,18.4-27.5S88.1,27.7,88.1,27.7s-2.1-1.3-1.2-2.9c0.9-1.6,3.2-0.2,3.2-0.2
		s16.8,8.6,16.9,30.1S88.5,86,88.5,86l-2.6,1.2c0,0-2.1,0.7-2.7-1.2C82.7,84.3,85,83.7,85,83.7z"/>
	<path class="st1" d="M86.5,84.3c0,0,16.7-7.6,16.8-28.5S86.5,28.2,86.5,28.2s-2.2-1.2-1.4-2.9c0.8-1.7,3.2-0.4,3.2-0.4
		s17.2,7.7,18.6,29.1S90.2,86.3,90.2,86.3l-2.5,1.4c0,0-2,0.8-2.7-1C84.3,84.9,86.5,84.3,86.5,84.3z"/>
	<path class="st0" d="M93.8,96.2c0,0,25-9.8,27-40.3S98.4,14.2,98.4,14.2s-3.1-1.9-1.8-4.3s4.7-0.3,4.7-0.3s24.6,12.6,24.8,44.1
		S98.9,99.6,98.9,99.6l-3.7,1.8c0,0-3,1-3.9-1.7C90.4,97,93.8,96.2,93.8,96.2z"/>
	<path class="st1" d="M96.1,97c0,0,24.4-11.2,24.7-41.8S96.1,14.9,96.1,14.9s-3.2-1.7-2-4.2s4.6-0.6,4.6-0.6s25.2,11.2,27.2,42.6
		s-24.5,47.3-24.5,47.3l-3.6,2c0,0-3,1.1-4-1.5C92.8,98.1,96.1,97,96.1,97z"/>
</g>
<g id="speaker">
	<path class="st2" d="M0.4,62.4V39.4c0,0-0.2-4.1,5.4-4.1s14.7,0,14.7,0s2.6,1.2,9.9-6.1S56,3.6,56,3.6s8.1-5.9,8.1,2.9
		s0,97.7,0,97.7s-2.4,9.8-9.3,2.9S32.3,84.6,32.3,84.6s-6.3-8.4-11.8-8.4s-15.6,0-15.6,0s-4.5-0.7-4.5-5.7
		C0.4,65.6,0.4,62.4,0.4,62.4z"/>
	<path class="st3" d="M0.4,62.4V39.4c0,0-0.2-4.1,5.4-4.1s14.7,0,14.7,0s3.9-0.1,9.9-6.1C37.8,21.8,52.3,7.4,56,3.6s8.1-5.9,8.1,2.9
		s0,94.8,0,97.7s-2.4,9.8-9.3,2.9S32.3,84.6,32.3,84.6s-7.4-8.4-11.8-8.4c-5.4,0-15.6,0-15.6,0s-4.5-0.7-4.5-5.7
		C0.4,65.6,0.4,62.4,0.4,62.4z"/>
	<path class="st0" d="M2.9,61.6V41.2c0,0-0.2-3.6,5-3.6s13.6,0,13.6,0s3.6,0,9.2-5.4c6.8-6.5,20.2-19.3,23.7-22.6
		c3.5-3.3,7.5-5.2,7.5,2.6s0,84,0,86.5c0,2.6-2.2,8.7-8.6,2.6s-20.9-20-20.9-20s-6.8-7.4-10.9-7.4c-5,0-14.4,0-14.4,0
		s-4.2-0.6-4.2-5S2.9,61.6,2.9,61.6z"/>
	<line class="st1" x1="23.2" y1="38.8" x2="23.2" y2="72.2"/>
	<line class="st1" x1="19.2" y1="38.8" x2="19.2" y2="72.2"/>
	<line class="st0" x1="21.2" y1="38.8" x2="21.2" y2="72.2"/>
</g>
</svg>
