<?xml version="1.0" encoding="utf-8"?>
<!-- Generator: Adobe Illustrator 25.1.0, SVG Export Plug-In . SVG Version: 6.00 Build 0)  -->
<svg version="1.1" xmlns="http://www.w3.org/2000/svg" xmlns:xlink="http://www.w3.org/1999/xlink" x="0px" y="0px"
	 viewBox="0 0 126.54 100.48" style="enable-background:new 0 0 126.54 100.48;" xml:space="preserve">
<style type="text/css">
	.st0{fill:none;stroke:#01FFFF;stroke-miterlimit:10;}
	.st1{fill:none;stroke:#9D72FF;stroke-miterlimit:10;}
	.st2{fill:none;}
	.st3{fill:none;stroke:#9D72FF;stroke-width:0.75;stroke-miterlimit:10;}
</style>
<g id="x">
	<path class="st0" d="M126.03,67.66c0.07,0.9-0.27,1.68-1.01,2.34c-0.74,0.67-1.61,1.04-2.59,1.12c-0.9,0.07-1.67,0-2.29-0.21
		c-0.62-0.21-1.22-0.61-1.8-1.21L98.26,51.1L80.64,73.19c-0.62,0.82-1.61,1.28-2.96,1.39c-1.21,0.09-2.19-0.15-2.96-0.74
		c-0.77-0.58-1.18-1.32-1.25-2.22c-0.08-1.02,0.23-1.91,0.93-2.67l17.95-22.21l-20.07-18.5c-0.81-0.64-1.25-1.48-1.33-2.5
		c-0.07-0.96,0.2-1.78,0.83-2.47c0.63-0.69,1.58-1.09,2.86-1.19c1.28-0.1,2.4,0.2,3.37,0.9l19.73,18.43l16.48-20.65
		c0.97-1.23,2.16-1.9,3.6-2.01c1.2-0.09,2.19,0.15,2.96,0.74c0.76,0.58,1.18,1.32,1.25,2.22c0.07,0.96-0.27,1.92-1.03,2.87
		l-17.24,21.19l20.83,19.41C125.48,66,125.96,66.83,126.03,67.66z"/>
	<path class="st1" d="M124.33,69.76c0,0.9-0.4,1.65-1.19,2.26c-0.79,0.61-1.68,0.91-2.66,0.91c-0.91,0-1.66-0.13-2.27-0.38
		c-0.61-0.26-1.17-0.7-1.7-1.35L97.92,51.11L78.65,71.77c-0.68,0.77-1.7,1.15-3.06,1.15c-1.21,0-2.17-0.32-2.89-0.96
		c-0.72-0.64-1.08-1.41-1.08-2.31c0-1.02,0.38-1.89,1.13-2.59L92.36,46.3L73.77,26.31c-0.76-0.7-1.13-1.57-1.13-2.6
		c0-0.96,0.34-1.76,1.02-2.4c0.68-0.64,1.66-0.96,2.95-0.96c1.28,0,2.38,0.38,3.29,1.15L98.14,41.4l18.02-19.32
		c1.06-1.15,2.3-1.73,3.74-1.73c1.21,0,2.17,0.32,2.89,0.96c0.72,0.64,1.08,1.41,1.08,2.31c0,0.96-0.42,1.89-1.25,2.79l-18.82,19.8
		l19.27,20.95C123.91,68.06,124.33,68.92,124.33,69.76z"/>
</g>
<g id="speaker">
	<path class="st2" d="M0.38,56.74V35.79c0,0-0.21-3.7,4.93-3.7s13.35,0,13.35,0s2.36,1.13,9.04-5.55S50.91,3.33,50.91,3.33
		s7.4-5.34,7.4,2.67s0,88.75,0,88.75s-2.16,8.94-8.42,2.67c-6.27-6.27-20.54-20.54-20.54-20.54s-5.75-7.6-10.68-7.6
		s-14.18,0-14.18,0s-4.11-0.62-4.11-5.14C0.38,59.62,0.38,56.74,0.38,56.74z"/>
	<path class="st3" d="M0.38,56.74V35.79c0,0-0.21-3.7,4.93-3.7s13.35,0,13.35,0s3.54-0.05,9.04-5.55
		c6.68-6.68,19.8-19.8,23.21-23.21s7.4-5.34,7.4,2.67s0,86.13,0,88.75s-2.16,8.94-8.42,2.67c-6.27-6.27-20.54-20.54-20.54-20.54
		s-6.68-7.6-10.68-7.6c-4.93,0-14.18,0-14.18,0s-4.11-0.62-4.11-5.14C0.38,59.62,0.38,56.74,0.38,56.74z"/>
	<path class="st0" d="M2.64,56V37.44c0,0-0.19-3.27,4.56-3.27s12.36,0,12.36,0s3.28-0.05,8.37-4.91
		C34.1,23.34,46.25,11.72,49.41,8.7c3.16-3.02,6.84-4.73,6.84,2.37s0,76.28,0,78.6c0,2.32-2,7.91-7.8,2.37
		c-5.8-5.55-19.01-18.19-19.01-18.19s-6.18-6.73-9.89-6.73c-4.56,0-13.12,0-13.12,0s-3.8-0.55-3.8-4.55S2.64,56,2.64,56z"/>
	<line class="st1" x1="21.11" y1="35.27" x2="21.11" y2="65.63"/>
	<line class="st1" x1="17.49" y1="35.27" x2="17.49" y2="65.63"/>
	<line class="st0" x1="19.3" y1="35.27" x2="19.3" y2="65.63"/>
	<g>
	</g>
	<g>
	</g>
	<g>
	</g>
	<g>
	</g>
	<g>
	</g>
	<g>
	</g>
</g>
</svg>
