<?xml version="1.0" encoding="utf-8"?>
<!-- Generator: Adobe Illustrator 25.1.0, SVG Export Plug-In . SVG Version: 6.00 Build 0)  -->
<svg version="1.1" xmlns="http://www.w3.org/2000/svg" xmlns:xlink="http://www.w3.org/1999/xlink" x="0px" y="0px"
	 viewBox="0 0 126.5 110.55" style="enable-background:new 0 0 126.5 110.55;" xml:space="preserve">
<style type="text/css">
	.st0{fill:none;stroke:#01FFFF;stroke-miterlimit:10;}
	.st1{fill:none;stroke:#9D72FF;stroke-miterlimit:10;}
	.st2{fill:none;}
	.st3{fill:none;stroke:#9D72FF;stroke-width:0.75;stroke-miterlimit:10;}
</style>
<g id="sound_x5F_waves">
	<path class="st0" d="M73.16,70.1c0,0,12.34-3.36,13.3-13.86c0.96-10.5-11.03-14.32-11.03-14.32s-1.51-0.64-0.89-1.48
		c0.63-0.83,2.3-0.1,2.3-0.1s12.12,4.33,12.22,15.16S75.69,71.25,75.69,71.25l-1.84,0.63c0,0-1.5,0.33-1.92-0.58
		S73.16,70.1,73.16,70.1z"/>
	<path class="st1" d="M74.28,70.38c0,0,12.05-3.83,12.17-14.36c0.11-10.52-12.17-13.87-12.17-13.87s-1.56-0.58-1-1.44
		c0.56-0.86,2.29-0.19,2.29-0.19s12.44,3.85,13.42,14.66C89.96,65.99,76.9,71.43,76.9,71.43l-1.79,0.7c0,0-1.47,0.39-1.96-0.51
		C72.66,70.73,74.28,70.38,74.28,70.38z"/>
	<path class="st0" d="M84.96,83.69c0,0,17.09-6.67,18.41-27.54S88.1,27.69,88.1,27.69s-2.09-1.28-1.23-2.93
		c0.87-1.65,3.18-0.21,3.18-0.21s16.77,8.6,16.92,30.12c0.15,21.52-18.51,31.3-18.51,31.3l-2.55,1.25c0,0-2.07,0.66-2.66-1.15
		C82.69,84.26,84.96,83.69,84.96,83.69z"/>
	<path class="st1" d="M86.52,84.26c0,0,16.69-7.62,16.84-28.53c0.15-20.91-16.84-27.55-16.84-27.55s-2.16-1.16-1.39-2.86
		c0.77-1.7,3.17-0.39,3.17-0.39s17.23,7.65,18.58,29.12S90.15,86.34,90.15,86.34l-2.47,1.39c0,0-2.03,0.77-2.72-1
		C84.28,84.95,86.52,84.26,86.52,84.26z"/>
	<path class="st0" d="M93.77,96.21c0,0,25.01-9.77,26.95-40.32c1.94-30.55-22.36-41.65-22.36-41.65s-3.07-1.87-1.8-4.29
		c1.27-2.42,4.66-0.31,4.66-0.31S125.78,22.23,126,53.73S98.91,99.56,98.91,99.56l-3.73,1.83c0,0-3.03,0.96-3.89-1.69
		C90.44,97.04,93.77,96.21,93.77,96.21z"/>
	<path class="st1" d="M96.05,97.04c0,0,24.43-11.15,24.65-41.77S96.05,14.94,96.05,14.94s-3.17-1.7-2.04-4.18s4.64-0.57,4.64-0.57
		s25.22,11.2,27.2,42.64c1.98,31.44-24.48,47.27-24.48,47.27l-3.62,2.04c0,0-2.98,1.13-3.98-1.47
		C92.77,98.06,96.05,97.04,96.05,97.04z"/>
</g>
<g id="speaker">
	<path class="st2" d="M0.38,62.44V39.36c0,0-0.23-4.07,5.43-4.07s14.7,0,14.7,0s2.6,1.24,9.95-6.11S56.02,3.63,56.02,3.63
		s8.14-5.88,8.14,2.94s0,97.71,0,97.71s-2.37,9.84-9.27,2.94S32.27,84.6,32.27,84.6s-6.33-8.37-11.76-8.37s-15.61,0-15.61,0
		s-4.52-0.68-4.52-5.65C0.38,65.6,0.38,62.44,0.38,62.44z"/>
	<path class="st3" d="M0.38,62.44V39.36c0,0-0.23-4.07,5.43-4.07s14.7,0,14.7,0s3.9-0.06,9.95-6.11c7.35-7.35,21.8-21.8,25.56-25.56
		s8.14-5.88,8.14,2.94s0,94.83,0,97.71c0,2.88-2.37,9.84-9.27,2.94S32.27,84.6,32.27,84.6s-7.35-8.37-11.76-8.37
		c-5.43,0-15.61,0-15.61,0s-4.52-0.68-4.52-5.65C0.38,65.6,0.38,62.44,0.38,62.44z"/>
	<path class="st0" d="M2.87,61.62V41.18c0,0-0.21-3.61,5.02-3.61s13.61,0,13.61,0s3.61-0.05,9.21-5.41
		c6.8-6.51,20.17-19.31,23.65-22.64c3.48-3.33,7.54-5.21,7.54,2.6s0,83.98,0,86.53c0,2.55-2.2,8.71-8.58,2.6
		c-6.38-6.11-20.93-20.03-20.93-20.03s-6.8-7.41-10.89-7.41c-5.02,0-14.44,0-14.44,0s-4.19-0.6-4.19-5.01S2.87,61.62,2.87,61.62z"/>
	<line class="st1" x1="23.21" y1="38.8" x2="23.21" y2="72.22"/>
	<line class="st1" x1="19.22" y1="38.8" x2="19.22" y2="72.22"/>
	<line class="st0" x1="21.21" y1="38.8" x2="21.21" y2="72.22"/>
	<g>
	</g>
	<g>
	</g>
	<g>
	</g>
	<g>
	</g>
	<g>
	</g>
	<g>
	</g>
</g>
</svg>
